<?xml version="1.0" encoding="UTF-8"?>
<svg data-bbox="0 -0.212 756 175.303" height="175" width="756" viewBox="0 0 756 175" xmlns="http://www.w3.org/2000/svg" data-type="ugc">
    <g>
        <path d="M0 6c3.75-2.15 7.67-3.66 12-4 3.15-.61 7.17-1.43 11-1 4.83.54 10.53 3.37 13 8 4 7.5 4.26 17.74 6 26 3.48 9.79 5.68 20.87 8 31 2.58 11.27 4.13 22.78 7 34 .88 2.27 1.95 7.87 2.93 10.07.97 2.21 1.75 9.1 4.07 9.93.33-.15 1.82-.8 2-1 5.62-6.39 6.15-21.93 8-30 .21-.92.83-1.44 1-2 1.49-4.78 1.54-10.15 3-15 .11-.35.72-.77 1-1 .68-2.59.39-5.36 1-8 .4-1.73 1.42-3.65 2-5 .93-3.23 1.02-6.76 2-10 .11-.35.7-.79 1-1 1.48-3.67 3.02-9.42 4-13 .67-4.24 2-7.88 3-12 .81-3.34 1.81-6.11 3-9 2.86-6.93 6.56-10.43 15-11 4.05-.73 7.98-.88 12 0 .99 0 2.01-.05 3 0 7.18.37 8.8 4.04 11 10 1.07 1.99 2.32 4.57 3 7 1 3.58 1.06 7.38 2 11 .25.25.94.65 1 1 1.65 9.28 3.66 18.82 6 28 2.62 6.37 4.44 13.97 6 21 2.28 10.3 4.23 20.79 7 31 .65 2.39 2.56 5.22 3 8 7.3-3.33 6.07-14.5 8.98-22.02 2.9-7.53 3.71-17.78 7.02-24.98.88-3.71.8-7.34 2-11 .12-.35.75-.75 1-1 .86-3.31.92-6.7 2-10 .12-.35.75-.75 1-1 1.13-4.31 1.6-8.72 3-13 .12-.35.75-.75 1-1 2.8-10.71 2.68-25.85 13.75-32.25 11.06-6.41 32.24-1.13 27.32 13.32C226.16 30.53 225.36 39.01 221 53c-10.7 34.3-19.08 69.44-29 104-3.2 11.14-8.73 17.45-21 18h263c-18.8-1.4-24.5-21.61-33.77-35.23S382.52 110.06 374 96c-3.53-5.82-6.96-11.31-10.92-17.08s-4.37-12.65-10.83-17.17c-6.47-4.51-5.59 12.31-5.25 19.25s0 20.46 0 28v41c0 10.27 1.14 24.33-11.01 23.99s-21.34.42-22.99-11.99c-1.84-13.77 0-29.09 0-43V22c0-2.56-.4-5.48 0-8 1.37-8.6 8.99-12.69 17-13-.02 0 0-1 0-1H0zm285 105c0 10.27-.59 21.52-1 31 .52 9.62 1.48 18.21 0 28-9.59 5.3-21.18 4.7-31 0 .21-3.46-1.7-6.4-1-10-1.53-10.93-1-22.68-1-34 0-16.55-.52-34.25 1-50 0-18.42-2.81-40.65 1-58v-3c-.59-2.69-1.25-4.23 0-7 4.16-9.2 32.39-9.05 31 6s1.52 32.38 1 48 0 33.2 0 49" fill="none"/>
        <path d="M330 1c3.63-.14 7.37-.14 11 0 .02 0 0-1 0-1h-11s-.02 1 0 1Z" fill="none" stroke-width=".3" stroke-opacity=".39" stroke="#FF6000"/>
        <path d="M341 1c12.67.48 17.09 11.46 23 21 1.87 3.02 3.51 5.94 5 9 .29.23.79.7 1 1 3.41 4.84 6.04 10.12 9 15 12.03 14.49 21.04 32.91 31 49 4.78 7.72 15.71 21.28 15 6s1-22.79 1-37c0-.5-.11-1.53 0-2-2.46-5.8-1-15.29-1-22V28c0-2.66-.05-5.34 0-8 .05-2.52.74-5.17 1-7 .24-7.12 2.64-10.88 10-12 3.12-.48 7.88-.51 11 0 1.09.18 2.86.69 4 1 3.12.85 3.67 1.26 5 4 .37.77.74.87 1 2 1.32 5.74 1 11.91 1 18v4c1.45 10.61 1.02 23.47 0 34v9c0 13.94-.5 25.97 0 40s-.18 26.5 1 41-7.62 22.02-22 21h319v-9c-8.93 14.05-29.45 7.06-46 8s-38.01 0-55 0c-12.56 0-29.01 2.69-26-14 .65-3.6.87-6.08 5-7 6.67-1.48 10.81.32 10-8s0-11.18 0-19c0-31.98.64-64.03 0-96-.11-5.51-1.8-9.32-7-8-5.2 1.33-8.47-4.13-8-7-3.59-3.9 2.82-11.83 6-13 11.74-4.33 32.93-1.17 45 0h43c5.04-.49 11.28-1 17-1 2.31 0 4.69-.16 7 0 4.83.33 7.01 1.65 9 6V0H341s.02 1 0 1m172 44c8.4 6.7 15.49 15.49 23 23 2.45 2.09 5.37 4.19 7 7 8.4-1.35 15.28-15.31 22.25-20.75 6.96-5.45 17.22-21.41 27.5-10 10.27 11.42-9.08 17.47-13 25.5C575.84 77.79 560.27 84.49 561 93c1.88 5.08 8.65 8.56 12.25 12.75S582.1 115.1 586 119c3.14 2.69 7.33 5.79 8 10 2.37 14.84-15.54 16.63-22.75 6.75-7.22-9.88-13-12.92-21.5-22.5-8.5-9.59-15.35 6.36-23 12.5-7.66 6.13-13.32 20.99-25.98 15.48s-4.92-18.63 3.48-24.98 15.47-15.98 21.5-22.5S513.7 74.7 509 70c-5.08-5.08-13.74-9.34-17-16-.2-.4 0-1 0-1-.94-12.49 13.76-13.77 21-8" fill="none"/>
        <path d="M12 2c3.15-.25 10.37-1 11-1-3.83-.43-7.85.39-11 1Z" fill="none" stroke-width=".3" stroke-opacity=".84" stroke="#FE620A"/>
        <path d="M12 2c-4.33.34-8.25 1.85-12 4v13c3.04 6.49 4.05 14.15 7 21 2.37 5.5 4.01 11.77 5 18 2 12.58 6.72 24.73 10 37 2.36 5.81 3.25 11.58 4 17 4.14 16.48 7.67 36.67 15 52-1.3-4.3-2.57-13.78-3.98-19.02-1.4-5.25.3-11.54-2.99-16.01-3.3-4.47 1.34-14.85 4.97-11.97-1.33-3.94-.02-5.31 4-4-2.33-1.14-3.66-4.09 0-2-1.45-4.06.04-5.76 2.75-6.39S45.71 96.27 50 100c-1.87-2.27-1.4-4.14 2-5 5.41 7.19 5.34 20.39 12 25-2.32-.83-3.1-7.72-4.07-9.93-.98-2.2-2.05-7.8-2.93-10.07-4.07-10.49-5.79-23.6-7-34-2.32-10.13-4.52-21.21-8-31-2.74-7.71-3.5-19.37-6-26-2.47-4.63-8.17-7.46-13-8-.63 0-7.85.75-11 1Z" fill="none" stroke-width=".3" stroke-opacity=".99" stroke="#FE851D"/>
        <path d="M110 2c3.96-.27 8.03 0 12 0-4.02-.88-7.95-.73-12 0Z" fill="none" stroke-width=".3" stroke-opacity=".73" stroke="#FE5401"/>
        <path d="M190 35c8.1-7.93 1.77-24.72 14.08-30.92 12.32-6.2 30.79-1 25.14 13.14-5.64 14.15-6.88 22.64-8.22 35.78 4.36-13.99 5.16-22.47 10.07-36.93 4.92-14.45-16.26-19.73-27.32-13.32C192.68 9.15 192.8 24.29 190 35Z" fill="none" stroke-width=".3" stroke-opacity=".87" stroke="#FF731D"/>
        <path d="M313 14c-.1 1.52 1 5.67 1 8v36c1.58-16.31-3.89-41.5 9-51 2.35 2.26 5.34 2.33 7 0-.86 3.15 10.54 3 10-1 6.01-2.12 6.56 5.9 9 0 6.84 10.76 14.45 21.35 23 31-1.27-2.26-2.35-3.12-2-5-.21-.3-.71-.77-1-1-3.37-2.63-4.12-6.63-5-9-5.91-9.54-10.33-20.52-23-21a144 144 0 0 0-11 0c-8.01.31-15.63 4.4-17 13Z" fill="none" stroke-width=".3" stroke-opacity=".93" stroke="#FE8A18"/>
        <path d="M426 13c-.08 2.33 0 4.67 0 7v8c0 4.41-.65 9.34-1 13 0 6.71-1.46 16.2 1 22 1.88-8.12-1.12-18.92 5-25 5.01 5.5 12.66-.18 19 0 1.33 3.97 1.21 3.68 4 1 3.12 7.43 1.88 16.68 4 24 .01-11 0-22 0-33v-4c-.73-5.39-1.27-13.06-1-18-.26-1.13-.63-1.23-1-2-1-.97-4.01-3.55-5-4-1.14-.31-2.91-.82-4-1-1.93-.11-9.14-.11-11 0-7.36 1.12-9.76 4.88-10 12Z" fill="none" stroke-width=".3" stroke-opacity=".99" stroke="#FE8D1B"/>
        <path d="M447 1c-3.12-.51-7.88-.48-11 0 1.86-.11 9.07-.11 11 0Z" fill="none" stroke-width=".3" stroke-opacity=".82" stroke="#FE690C"/>
        <path d="M635 2c6.43-2.37 15.01.83 22 0s15.84 0 23 0c-12.07-1.17-33.26-4.33-45 0Z" fill="none" stroke-width=".3" stroke-opacity=".49" stroke="#EB6700"/>
        <path d="M723 2h17c-.25-.27 0-1 0-1-5.72 0-11.96.51-17 1Z" fill="none" stroke-width=".3" stroke-opacity=".49" stroke="#E86700"/>
        <path d="M740 2c1 0 2 .02 3 0 1.58-.03 3.09-.88 4-1-2.31-.16-4.69 0-7 0 0 0-.25.73 0 1Z" fill="none" stroke-width=".3" stroke-opacity=".68" stroke="#EE7700"/>
        <path d="M743 2c-5.83 1.68-16.55 2.26-23.75 3.6-7.2 1.35-18.91-1.63-24.25 2.4-10.02-4.56-23.53-4.32-35-4s-25.28-3.44-30 9c-.11.68-.96 1.77-1 2-.47 2.87 2.8 8.33 8 7 5.2-1.32 6.89 2.49 7 8 .24 1.99 1.89 5.31 1 8 3.77-5.99-1.61-16.46 0-20-2.7-1.8-2.65 1.5-5 0 3.33-5.13 15-2.02 18 4 1.94-2.93 4.72-.58 3 2 5.23-5.59 9.54 1.1 14 3-1.54 5.27 1 14.02.07 21.07-.92 7.06.01 20.14-.07 26.93s-1.75 16.58-6 11c.69 2.55-.67 8.15-4 6 .72 2.11 1.69 6.52-1 3 4.05 8.99-10.32 15.58-7 23-5.1.35-.47.54 1 2-8.44-1.38-1.75 9.93-9 10-.9 5.35 2.8 8.62-3 11V42c-3 26.93 1 57.14-2 84 0 7.82-.81 10.68 0 19s-3.33 6.52-10 8c-1.67.62-4.59 5.78-5 7-3.01 16.69 13.44 14 26 14 25.55-2.47 52.98-.12 79-2-2.97-3.33-7.8-3.62-12-2-.29-4.22-9.42-3.22-13.08-4.92-3.65-1.71-9.66-1.48-10.92-6.08-2.77 1.45-4.81.6-4-3-6.62.71-12.83-.56-18-4 .67-15.83-1.33-32.99 1-48 0-8.45-.8-16.51 0-25s.84-13.78.33-22.67 2.27-13.7.67-24.33 4.99-9.53 15-10 14.59 1.65 13 12 .85 15.74 0 25 .21 15.88 1 24V25c2.33 17.43.34 36.82 1 55v11c.63 6.47 1.28 14.39 3 21 3.34-.16 4.76-.15 6-3 .19 4.96 5.07 2.61 6 0 1.76 2.83 5 1.48 8 1 .07 2.1 3.01 3.7 5 4 4.71-28.28-.23-61.17 3-90 3.61-5 15.73 1.09 17-8V7c-1.99-4.35-4.17-5.67-9-6-.91.12-2.42.97-4 1Z" fill="none" stroke-width=".3" stroke="#EFAB22"/>
        <path d="M95 13c-.84 3.29-1.87 6.14-3 9-1 4.12-2.33 7.76-3 12-.55 3.43-1.04 10.91-4 13-.3.21-.89.65-1 1 .93 3.47-.54 6.57-2 10-.58 1.35-1.6 3.27-2 5-.17 1.45.75 3.68 0 6 4.36-7.52 3.47-19.91 10-23-.3-2.51 2.09-4.71 0-7 7.95-1.33 13.82-1.73 19 0-1-3.36 7.59-1.56 8.92-5.08 1.32-3.53 7.38-6.59 6.08-.92 4.66-2.25 3.9-6.36 6-10 3.4 4.52 1.7-1.37 3-4 5.8 4.5 5.11 14.9 9 19-.63-2.9-.83-4.58 0-7-.06-.35-.75-.75-1-1-2.98-2.92-1.57-8.29-2-11-.68-2.43-1.93-5.01-3-7-2.63-4.87-5.59-8.54-11-10-.99-.05-2.01 0-3 0-3.97 0-8.04-.27-12 0-8.44.57-12.14 4.07-15 11Z" fill="none" stroke-width=".3" stroke-opacity=".99" stroke="#FE861C"/>
        <path d="M136 12c-2.2-5.96-3.82-9.63-11-10 5.41 1.46 8.37 5.13 11 10Z" fill="none" stroke-width=".3" stroke-opacity=".76" stroke="#FE5803"/>
        <path d="M190 35c-.25.25-.88.65-1 1 1.08 3.12-.27 10.33-3 13-.25.25-.88.65-1 1 .68 2.55.4 7.65-2 10-.25.25-.88.65-1 1 1.33 3.87-.48 7.31-2 11-3.31 7.2-4.12 17.45-7.02 24.98-2.91 7.52-1.68 18.69-8.98 22.02-.44-2.78-2.35-5.61-3-8-3.98-7.35-6.03-21.46-7-31-1.56-7.03-3.38-14.63-6-21-2.57-6.25-4.5-14.12-6-21-3.89-4.1-3.2-14.5-9-19-1.3 2.63.4 8.52-3 4-2.1 3.64-1.34 7.75-6 10 1.3-5.67-4.76-2.61-6.08.92-1.33 3.52-9.92 1.72-8.92 5.08-5.18-1.73-11.05-1.33-19 0 2.09 2.29-.3 4.49 0 7-6.53 3.09-5.64 15.48-10 23-.45 1.37.11 1.07-1 2-.28.23-.89.65-1 1 1.33 3.87-1.26 13.43-3 15-.17.56-.79 1.08-1 2 .5 4.75-2.25 13.38-2.78 18.22-.52 4.85-5.6 15.38-5.22 11.78-.18.2-1.67.85-2 1-6.66-4.61-6.59-17.81-12-25-3.4.86-3.87 2.73-2 5-4.29-3.73-1.54 3.98-4.25 4.61s-4.2 2.33-2.75 6.39c-3.66-2.09-2.33.86 0 2-4.02-1.31-5.33.06-4 4-3.63-2.88-8.27 7.5-4.97 11.97 3.29 4.47 1.59 10.76 2.99 16.01C38.43 150.22 39.7 159.7 41 164c3.86 8.07 11.74 9.68 20 10 2.64.1 5.36.1 8 0 26.34-1.01 22.77-32.26 29.33-51.67 6.55-19.42 8.04-46.02 17.67-64.33 11.54 36.05 15.16 75.37 30 110-5.7-9.75-10.03-29.27-5-39 .85 2.28 2.53 6.59 6 4 2.92 1.24-2.01 4.79 1 6-.05-2.22 2.29-3.99 4-5 1.13 4.68 8.58.49 12-1 2.01.87 3.02 4.86 3-1 2.38 5.76 3.38.78 8 1-5.22-5.31 8.09-1.15 5-8 8.07 1.85 12.04-5.85 18-7-1.69-1.84.52-4.84 3-4-.33 5.41-2.78 13.25-4.77 20.23-1.99 6.97-4.64 16.38-4.23 22.77 9.92-34.56 18.3-69.7 29-104 1.34-13.14 2.58-21.63 8.22-35.78 5.65-14.14-12.82-19.34-25.14-13.14C191.77 10.28 198.1 27.07 190 35Z" fill="none" stroke-width=".3" stroke="#FE9420"/>
        <path d="M253 8c-.54 2 0 4.91 0 7v73c-2.19-3.09-.43-8.16-1-12-1.52 15.75-1 33.45-1 50 .83-8.58 5.51-17.94 4-24 3.65 5.15 6.25-1.94 9 1 1.17-5.2 3.87-4.02 7-4-1.28-5.65 6.57-2.06 9-7 6.4 4.56 2.35 13.37 5 19 0-15.8-.52-33.38 0-49s-2.39-32.95-1-48-26.84-15.2-31-6Z" fill="none" stroke-width=".3" stroke="#FE9B1E"/>
        <path d="M456 6c-1.33-2.74-1.88-3.15-5-4 .99.45 4 3.03 5 4Z" fill="none" stroke-width=".3" stroke-opacity=".48" stroke="#FE5303"/>
        <path d="M629 15c.04-.23.89-1.32 1-2 .51-3.07 1.24-9.61 5-11-3.18 1.17-9.59 9.1-6 13Z" fill="none" stroke-width=".3" stroke-opacity=".8" stroke="#F38106"/>
        <path d="M630 13c4.72-12.44 18.53-8.68 30-9s24.98-.56 35 4c5.34-4.03 17.05-1.05 24.25-2.4 7.2-1.34 17.92-1.92 23.75-3.6-1 .02-2 0-3 0h-60c-7.16 0-16.01-.83-23 0s-15.57-2.37-22 0c-3.76 1.39-4.49 7.93-5 11Z" fill="none" stroke-width=".3" stroke-opacity=".99" stroke="#EE9919"/>
        <path d="M314 58v11c0 10.97-.01 22.8-1 33v17c.61-6.31 2.69-14.09 3-20 6.28-1.65 16.02-1.18 19-7 .71 3.13 4.23-.15 4 3 6.89-12.36 6.42 9.47 8 14 0-7.54.34-21.06 0-28s-1.22-23.76 5.25-19.25c6.46 4.52 6.87 11.4 10.83 17.17S370.47 90.18 374 96c-1.91-4.64-6.22-12.27-10-17 .19-2.46 3.74-2.72 2-5 5.69 6.18 16.2-7.69 25.22-2.22C400.25 77.25 402.11 90.5 410 96c-9.96-16.09-18.97-34.51-31-49-2.69-3.25-4.95-6.36-7-10-8.55-9.65-16.16-20.24-23-31-2.44 5.9-2.99-2.12-9 0 .54 4-10.86 4.15-10 1-1.66 2.33-4.65 2.26-7 0-12.89 9.5-7.42 34.69-9 51Z" fill="none" stroke-width=".3" stroke="#FFA320"/>
        <path d="M253 15c0-2.09-.54-5 0-7-1.25 2.77-.59 4.31 0 7Z" fill="none" stroke-width=".3" stroke-opacity=".8" stroke="#FF7A06"/>
        <path d="M458 26c0-6.09.32-12.26-1-18-.27 4.94.27 12.61 1 18Z" fill="none" stroke-width=".3" stroke-opacity=".75" stroke="#FE6400"/>
        <path d="M42 35c-1.74-8.26-2-18.5-6-26 2.5 6.63 3.26 18.29 6 26Z" fill="none" stroke-width=".3" stroke-opacity=".76" stroke="#FE5802"/>
        <path d="M92 22c1.13-2.86 2.16-5.71 3-9-1.19 2.89-2.19 5.66-3 9Z" fill="none" stroke-width=".3" stroke-opacity=".75" stroke="#FE5803"/>
        <path d="M425 20c0-.04 1 0 1 0 0-2.33-.08-4.67 0-7-.26 1.83-.95 4.48-1 7Z" fill="none" stroke-width=".3" stroke-opacity=".53" stroke="#FE5600"/>
        <path d="M313 22c0-.04 1 0 1 0 0-2.33-1.1-6.48-1-8-.4 2.52 0 5.44 0 8Z" fill="none" stroke-width=".3" stroke-opacity=".39" stroke="#FF6000"/>
        <path d="M644 30c.64 31.97 0 64.02 0 96 3-26.86-1-57.07 2-84v99c5.8-2.38 2.1-5.65 3-11 7.25-.07.56-11.38 9-10-1.47-1.46-6.1-1.65-1-2-3.32-7.42 11.05-14.01 7-23 2.69 3.52 1.72-.89 1-3 3.33 2.15 4.69-3.45 4-6 4.25 5.58 5.92-4.21 6-11s-.85-19.87.07-26.93c.93-7.05-1.61-15.8-.07-21.07-4.46-1.9-8.77-8.59-14-3 1.72-2.58-1.06-4.93-3-2-3-6.02-14.67-9.13-18-4 2.35 1.5 2.3-1.8 5 0-1.61 3.54 3.77 14.01 0 20 .89-2.69-.76-6.01-1-8Z" fill="none" stroke-width=".3" stroke="#F7BB29"/>
        <path d="M739 24c-3.29 6.65 1.45 17.45 0 25s.58 17.09 0 25 .1 17 0 25-.31 17.13 0 25-.94 17.57 0 25 15.14-.43 17 8V16c-1.27 9.09-13.39 3-17 8" fill="none"/>
        <path d="M252 76c.57 3.84-1.19 8.91 1 12V18c-3.81 17.35-1 39.58-1 58Z" fill="none" stroke-width=".3" stroke-opacity=".77" stroke="#FE7800"/>
        <path d="M0 175h61v-1c-8.26-.32-16.14-1.93-20-10-7.33-15.33-10.86-35.52-15-52-1.42-5.65-2.49-11.34-4-17-3.28-12.27-8-24.42-10-37-1.53-5.64-3.38-12.04-5-18-2.95-6.85-3.96-14.51-7-21z" fill="none"/>
        <path d="M141 30c-.94-3.62-1-7.42-2-11 .43 2.71-.98 8.08 2 11Z" fill="none" stroke-width=".3" stroke-opacity=".81" stroke="#FE610E"/>
        <path d="M425 28c0-.04 1 0 1 0v-8s-1-.04-1 0c-.05 2.66 0 5.34 0 8Z" fill="none" stroke-width=".3" stroke-opacity=".68" stroke="#FF6000"/>
        <path d="M313 69c0-.04 1 0 1 0V22s-1-.04-1 0z" fill="none" stroke-width=".3" stroke-opacity=".62" stroke="#FF6D00"/>
        <path d="M369 31c-1.49-3.06-3.13-5.98-5-9 .88 2.37 1.63 6.37 5 9Z" fill="none" stroke-width=".3" stroke-opacity=".64" stroke="#FE771E"/>
        <path d="M677 104c0 12.42.79 23.4 0 35 .05 1.66.34 7.95 1 10 .4.8-.32 2.16 0 3 9.39-1.21 21.33 2.5 29-2 3.26-6.52-2.3-18.05 0-25s-3.3-18.21 1-24v-1c-1.52-2.05-1-5.27-1-8v-9c-.79-8.12-1.85-14.74-1-24s-1.59-14.65 0-25-2.99-12.47-13-12-16.6-.63-15 10-1.18 15.44-.67 24.33.47 14.18-.33 22.67 0 16.55 0 25" fill="none"/>
        <path d="M708 91v10c0 7.48.94 17.81 0 25s2.99 18.53-1 24c-7.67 4.5-19.61.79-29 2-.32-.84.4-2.2 0-3-1.34-2.67-1.23-6.64-1-10 .79-11.6 0-22.58 0-35-2.33 15.01-.33 32.17-1 48 5.17 3.44 11.38 4.71 18 4-.81 3.6 1.23 4.45 4 3 1.26 4.6 7.27 4.37 10.92 6.08 3.66 1.7 12.79.7 13.08 4.92 4.2-1.62 9.03-1.33 12 2-26.02 1.88-53.45-.47-79 2 16.99 0 38.45.94 55 0s37.07 6.05 46-8v-9c-1.86-8.43-16.06-.57-17-8s.31-17.13 0-25-.1-17 0-25-.58-17.09 0-25-1.45-17.45 0-25-3.29-18.35 0-25c-3.23 28.83 1.71 61.72-3 90-1.99-.3-4.93-1.9-5-4-3 .48-6.24 1.83-8-1-.93 2.61-5.81 4.96-6 0-1.24 2.85-2.66 2.84-6 3-1.72-6.61-2.37-14.53-3-21Z" fill="none" stroke-width=".3" stroke="#D38E13"/>
        <path d="M707 80c.27-.25 1 0 1 0-.66-18.18 1.33-37.57-1-55z" fill="none" stroke-width=".3" stroke-opacity=".91" stroke="#F78F00"/>
        <path d="M425 41c.35-3.66 1-8.59 1-13 0 0-1-.04-1 0z" fill="none" stroke-width=".3" stroke-opacity=".85" stroke="#FE6C00"/>
        <path d="M458 63v1c1.02-10.53 1.45-23.39 0-34 0 11 .01 22 0 33Z" fill="none" stroke-width=".3" stroke-opacity=".35" stroke="#FEBD68"/>
        <path d="M142 38c1.5 6.88 3.43 14.75 6 21-2.34-9.18-4.35-18.72-6-28-.83 2.42-.63 4.1 0 7Z" fill="none" stroke-width=".3" stroke-opacity=".83" stroke="#FF6716"/>
        <path d="M372 37c2.05 3.64 4.31 6.75 7 10-2.96-4.88-5.59-10.16-9-15-.35 1.88.73 2.74 2 5Z" fill="none" stroke-width=".3" stroke-opacity=".71" stroke="#FE7C1B"/>
        <path d="M85 47c2.96-2.09 3.45-9.57 4-13-.98 3.58-2.52 9.33-4 13Z" fill="none" stroke-width=".3" stroke-opacity=".75" stroke="#FE5702"/>
        <path d="M186 49c2.73-2.67 4.08-9.88 3-13-1.4 4.28-1.87 8.69-3 13Z" fill="none" stroke-width=".3" stroke-opacity=".88" stroke="#FE6C11"/>
        <path d="M426 63c-.11.47 0 1.5 0 2 .25-1.57 2.11-3.93 2-6 7.75 1.47 12.79-1.45 23 0 .3 4.66.99 1.56 3 1 2.92 3.75.23 10.16 4 13V63c-2.12-7.32-.88-16.57-4-24-2.79 2.68-2.67 2.97-4-1-6.34-.18-13.99 5.5-19 0-6.12 6.08-3.12 16.88-5 25Z" fill="none" stroke-width=".3" stroke="#FEA822"/>
        <path d="M12 58c-.99-6.23-2.63-12.5-5-18 1.62 5.96 3.47 12.36 5 18Z" fill="none" stroke-width=".3" stroke-opacity=".77" stroke="#FE5902"/>
        <path d="M492 53c4.89-9.36 11.75-13.48 21-8-7.24-5.77-21.94-4.49-21 8Z" fill="none" stroke-width=".3" stroke-opacity=".77" stroke="#FD5D10"/>
        <path d="M543 75c-4.48.72-7.26-8.15-11.75-10.25s-10.31-8.7-15.33-7.81c-5.02.88-10.15 2.42-15.92 1.06-.1 5.18 7.1 7.47 9 12 4.7 4.7 22.78 17.23 16.75 23.75s-13.1 16.15-21.5 22.5-16.14 19.47-3.48 24.98 18.32-9.35 25.98-15.48c7.65-6.14 14.5-22.09 23-12.5 8.5 9.58 14.28 12.62 21.5 22.5 7.21 9.88 25.12 8.09 22.75-6.75-1.67-5.5-13.7-14.7-18-19-4.9-4.19-14.54-11.64-15-17-.73-8.51 14.84-15.21 18.75-23.25 3.92-8.03 23.27-14.08 13-25.5-10.28-11.41-20.54 4.55-27.5 10C558.28 59.69 551.4 73.65 543 75Z" fill="none" stroke-width=".3" stroke-opacity=".99" stroke="#FABC26"/>
        <path d="M492 53s-.2.6 0 1c2.98 2.54 4.32-5.89 6-7 15.64-2.85 26.66 10.84 38 21-7.51-7.51-14.6-16.3-23-23-9.25-5.48-16.11-1.36-21 8Z" fill="none" stroke-width=".3" stroke-opacity=".98" stroke="#FE8813"/>
        <path d="M492 54c3.26 6.66 11.92 10.92 17 16-1.9-4.53-9.1-6.82-9-12 5.77 1.36 10.9-.18 15.92-1.06 5.02-.89 10.84 5.71 15.33 7.81S538.52 75.72 543 75c-1.63-2.81-4.55-4.91-7-7-11.34-10.16-22.36-23.85-38-21-1.68 1.11-3.02 9.54-6 7Z" fill="none" stroke-width=".3" stroke-opacity=".98" stroke="#FEA51F"/>
        <path d="M82 58c1.46-3.43 2.93-6.53 2-10-.98 3.24-1.07 6.77-2 10Z" fill="none" stroke-width=".3" stroke-opacity=".76" stroke="#FE5801"/>
        <path d="M183 60c2.4-2.35 2.68-7.45 2-10-1.08 3.3-1.14 6.69-2 10Z" fill="none" stroke-width=".3" stroke-opacity=".82" stroke="#FE6A1B"/>
        <path d="M69 174c.02 0 0 1 0 1h91c-4.81-1.44-10.43-2.78-14-7-14.84-34.63-18.46-73.95-30-110-9.63 18.31-11.12 44.91-17.67 64.33C91.77 141.74 95.34 172.99 69 174" fill="none"/>
        <path d="M426 65c0 14.21-1.71 21.72-1 37s-10.22 1.72-15-6c-7.89-5.5-9.75-18.75-18.78-24.22-9.02-5.47-19.53 8.4-25.22 2.22 1.74 2.28-1.81 2.54-2 5 3.78 4.73 8.09 12.36 10 17 8.52 14.06 16.96 30.15 26.23 43.77S415.2 173.6 434 175h3c14.38 1.02 23.18-6.5 22-21s-.5-26.97-1-41 0-26.06 0-40c-3.77-2.84-1.08-9.25-4-13-2.01.56-2.7 3.66-3-1-10.21-1.45-15.25 1.47-23 0 .11 2.07-1.75 4.43-2 6Z" fill="none" stroke-width=".3" stroke-opacity=".99" stroke="#FEC52A"/>
        <path d="M180 72c1.52-3.69 3.33-7.13 2-11-1.2 3.66-1.12 7.29-2 11Z" fill="none" stroke-width=".3" stroke-opacity=".86" stroke="#FF7321"/>
        <path d="M79 71c1.11-.93.55-.63 1-2 .75-2.32-.17-4.55 0-6-.61 2.64-.32 5.41-1 8Z" fill="none" stroke-width=".3" stroke-opacity=".77" stroke="#FF5A01"/>
        <path d="M57 100c-2.87-11.22-4.42-22.73-7-34 1.21 10.4 2.93 23.51 7 34Z" fill="none" stroke-width=".3" stroke-opacity=".79" stroke="#FE5C02"/>
        <path d="M313 102c.99-10.2 1-22.03 1-33 0 0-1-.04-1 0z" fill="none" stroke-width=".3" stroke-opacity=".92" stroke="#FF8000"/>
        <path d="M75 87c1.74-1.57 4.33-11.13 3-15-1.46 4.85-1.51 10.22-3 15Z" fill="none" stroke-width=".3" stroke-opacity=".85" stroke="#FE6911"/>
        <path d="M161 111c-2.77-10.21-4.72-20.7-7-31 .97 9.54 3.02 23.65 7 31Z" fill="none" stroke-width=".3" stroke-opacity=".89" stroke="#FF7B27"/>
        <path d="M707 83v9c0-.04 1 0 1 0V80s-.73-.25-1 0z" fill="none" stroke-width=".3" stroke-opacity=".75" stroke="#F07D00"/>
        <path d="M66 119c-.38 3.6 4.7-6.93 5.22-11.78.53-4.84 3.28-13.47 2.78-18.22-1.85 8.07-2.38 23.61-8 30Z" fill="none" stroke-width=".3" stroke-opacity=".91" stroke="#FE7112"/>
        <path d="M313 119c0 13.91-1.84 29.23 0 43-.47-12.63 3.1-26.73 2-40 3.83-.1 7.81-1.81 11 2-3.13-5.67 7.3-1.66 2-6 3.77 2.27 6.38-.34 11 1 1.03-2.17 1.18-4.45 4-5 4.25 11.73.97 25.44 2 38 1.26-.08.56-2.06 2-2v-41c-1.58-4.53-1.11-26.36-8-14 .23-3.15-3.29.13-4-3-2.98 5.82-12.72 5.35-19 7-.31 5.91-2.39 13.69-3 20Z" fill="none" stroke-width=".3" stroke="#FEBC20"/>
        <path d="M251 126c0 11.32-.53 23.07 1 34-.31-8.28.55-20.71 5-28 3.36 2.36 2.33 1.95 7 3-.38-7.37 12.9-3.93 17-10 4.28 3.87 2.67 11.29 3 17 .41-9.48 1-20.73 1-31-2.65-5.63 1.4-14.44-5-19-2.43 4.94-10.28 1.35-9 7-3.13-.02-5.83-1.2-7 4-2.75-2.94-5.35 4.15-9-1 1.51 6.06-3.17 15.42-4 24Z" fill="none" stroke-width=".3" stroke="#FEB01E"/>
        <path d="M708 100v-8s-1-.04-1 0c0 2.73-.52 5.95 1 8Z" fill="none" stroke-width=".3" stroke-opacity=".56" stroke="#E66E00"/>
        <path d="M576 110c3.37 2.88 6.68 6.16 10 9-3.9-3.9-9.15-9.06-12.75-13.25S562.88 98.08 561 93c.46 5.36 10.1 12.81 15 17Z" fill="none" stroke-width=".3" stroke-opacity=".9" stroke="#F79B0C"/>
        <path d="M26 112c-.75-5.42-1.64-11.19-4-17 1.51 5.66 2.58 11.35 4 17Z" fill="none" stroke-width=".3" stroke-opacity=".8" stroke="#FE5D03"/>
        <path d="M707 150c3.99-5.47.06-16.81 1-24s0-17.52 0-25c-4.3 5.79 1.3 17.05-1 24s3.26 18.48 0 25Z" fill="none" stroke-width=".3" stroke-opacity=".63" stroke="#CA5500"/>
        <path d="M594 129c-.67-4.21-4.86-7.31-8-10-3.32-2.84-6.63-6.12-10-9 4.3 4.3 16.33 13.5 18 19Z" fill="none" stroke-width=".3" stroke-opacity=".7" stroke="#ED8B02"/>
        <path d="M146 168c3.57 4.22 9.19 5.56 14 7h11c12.27-.55 17.8-6.86 21-18-.41-6.39 2.24-15.8 4.23-22.77 1.99-6.98 4.44-14.82 4.77-20.23-2.48-.84-4.69 2.16-3 4-5.96 1.15-9.93 8.85-18 7 3.09 6.85-10.22 2.69-5 8-4.62-.22-5.62 4.76-8-1 .02 5.86-.99 1.87-3 1-3.42 1.49-10.87 5.68-12 1-1.71 1.01-4.05 2.78-4 5-3.01-1.21 1.92-4.76-1-6-3.47 2.59-5.15-1.72-6-4-5.03 9.73-.7 29.25 5 39Z" fill="none" stroke-width=".3" stroke-opacity=".99" stroke="#FEA220"/>
        <path d="M313 162c1.65 12.41 10.84 11.65 22.99 11.99S347 160.27 347 150c-1.44-.06-.74 1.92-2 2-1.03-12.56 2.25-26.27-2-38-2.82.55-2.97 2.83-4 5-4.62-1.34-7.23 1.27-11-1 5.3 4.34-5.13.33-2 6-3.19-3.81-7.17-2.1-11-2 1.1 13.27-2.47 27.37-2 40Z" fill="none" stroke-width=".3" stroke="#FECB26"/>
        <path d="M252 160c-.7 3.6 1.21 6.54 1 10 9.82 4.7 21.41 5.3 31 0 1.48-9.79.52-18.38 0-28-.33-5.71 1.28-13.13-3-17-4.1 6.07-17.38 2.63-17 10-4.67-1.05-3.64-.64-7-3-4.45 7.29-5.31 19.72-5 28Z" fill="none" stroke-width=".3" stroke-opacity=".99" stroke="#FEC721"/>
        <path d="M678 149c-.66-2.05-.95-8.34-1-10-.23 3.36-.34 7.33 1 10Z" fill="none" stroke-width=".3" stroke-opacity=".79" stroke="#E2A641"/>
        <path d="M629 160c.41-1.22 3.33-6.38 5-7-4.13.92-4.35 3.4-5 7Z" fill="none" stroke-width=".3" stroke-opacity=".8" stroke="#E18715"/>
        <path d="M61 175h8s.02-1 0-1c-2.64.1-5.36.1-8 0z" fill="none" stroke-width=".3" stroke-opacity=".31" stroke="#FEC699"/>
        <path d="M0 6c3.75-2.15 7.67-3.66 12-4 3.15-.61 7.17-1.43 11-1 4.83.54 10.53 3.37 13 8 4 7.5 4.26 17.74 6 26 3.48 9.79 5.68 20.87 8 31 2.58 11.27 4.13 22.78 7 34 .88 2.27 1.95 7.87 2.93 10.07.97 2.21 1.75 9.1 4.07 9.93.33-.15 1.82-.8 2-1 5.62-6.39 6.15-21.93 8-30 .21-.92.83-1.44 1-2 1.49-4.78 1.54-10.15 3-15 .11-.35.72-.77 1-1 .68-2.59.39-5.36 1-8 .4-1.73 1.42-3.65 2-5 .93-3.23 1.02-6.76 2-10 .11-.35.7-.79 1-1 1.48-3.67 3.02-9.42 4-13 .67-4.24 2-7.88 3-12 .81-3.34 1.81-6.11 3-9 2.86-6.93 6.56-10.43 15-11 4.05-.73 7.98-.88 12 0 .99 0 2.01-.05 3 0 7.18.37 8.8 4.04 11 10 1.07 1.99 2.32 4.57 3 7 1 3.58 1.06 7.38 2 11 .25.25.94.65 1 1 1.65 9.28 3.66 18.82 6 28 2.62 6.37 4.44 13.97 6 21 2.28 10.3 4.23 20.79 7 31 .65 2.39 2.56 5.22 3 8 7.3-3.33 6.07-14.5 8.98-22.02 2.9-7.53 3.71-17.78 7.02-24.98.88-3.71.8-7.34 2-11 .12-.35.75-.75 1-1 .86-3.31.92-6.7 2-10 .12-.35.75-.75 1-1 1.13-4.31 1.6-8.72 3-13 .12-.35.75-.75 1-1 2.8-10.71 2.68-25.85 13.75-32.25 11.06-6.41 32.24-1.13 27.32 13.32C226.16 30.53 225.36 39.01 221 53c-10.7 34.3-19.08 69.44-29 104-3.2 11.14-8.73 17.45-21 18h263c-18.8-1.4-24.5-21.61-33.77-35.23S382.52 110.06 374 96c-3.53-5.82-6.96-11.31-10.92-17.08s-4.37-12.65-10.83-17.17c-6.47-4.51-5.59 12.31-5.25 19.25s0 20.46 0 28v41c0 10.27 1.14 24.33-11.01 23.99s-21.34.42-22.99-11.99c-1.84-13.77 0-29.09 0-43V22c0-2.56-.4-5.48 0-8 1.37-8.6 8.99-12.69 17-13-.02 0 0-1 0-1H0v6m285 105c0 10.27-.59 21.52-1 31 .52 9.62 1.48 18.21 0 28-9.59 5.3-21.18 4.7-31 0 .21-3.46-1.7-6.4-1-10-1.53-10.93-1-22.68-1-34 0-16.55-.52-34.25 1-50 0-18.42-2.81-40.65 1-58v-3c-.59-2.69-1.25-4.23 0-7 4.16-9.2 32.39-9.05 31 6s1.52 32.38 1 48 0 33.2 0 49Z" fill="none" stroke="None"/>
        <path d="M330 1c3.63-.14 7.37-.14 11 0 .02 0 0-1 0-1h-11s-.02 1 0 1Z" fill="#FF6000" fill-opacity=".39" stroke="None"/>
        <path d="M341 1c12.67.48 17.09 11.46 23 21 1.87 3.02 3.51 5.94 5 9 .29.23.79.7 1 1 3.41 4.84 6.04 10.12 9 15 12.03 14.49 21.04 32.91 31 49 4.78 7.72 15.71 21.28 15 6s1-22.79 1-37c0-.5-.11-1.53 0-2-2.46-5.8-1-15.29-1-22V28c0-2.66-.05-5.34 0-8 .05-2.52.74-5.17 1-7 .24-7.12 2.64-10.88 10-12 3.12-.48 7.88-.51 11 0 1.09.18 2.86.69 4 1 3.12.85 3.67 1.26 5 4 .37.77.74.87 1 2 1.32 5.74 1 11.91 1 18v4c1.45 10.61 1.02 23.47 0 34v9c0 13.94-.5 25.97 0 40s-.18 26.5 1 41-7.62 22.02-22 21h319v-9c-8.93 14.05-29.45 7.06-46 8s-38.01 0-55 0c-12.56 0-29.01 2.69-26-14 .65-3.6.87-6.08 5-7 6.67-1.48 10.81.32 10-8s0-11.18 0-19c0-31.98.64-64.03 0-96-.11-5.51-1.8-9.32-7-8-5.2 1.33-8.47-4.13-8-7-3.59-3.9 2.82-11.83 6-13 11.74-4.33 32.93-1.17 45 0h43c5.04-.49 11.28-1 17-1 2.31 0 4.69-.16 7 0 4.83.33 7.01 1.65 9 6V0H341s.02 1 0 1m172 44c8.4 6.7 15.49 15.49 23 23 2.45 2.09 5.37 4.19 7 7 8.4-1.35 15.28-15.31 22.25-20.75 6.96-5.45 17.22-21.41 27.5-10 10.27 11.42-9.08 17.47-13 25.5C575.84 77.79 560.27 84.49 561 93c1.88 5.08 8.65 8.56 12.25 12.75S582.1 115.1 586 119c3.14 2.69 7.33 5.79 8 10 2.37 14.84-15.54 16.63-22.75 6.75-7.22-9.88-13-12.92-21.5-22.5-8.5-9.59-15.35 6.36-23 12.5-7.66 6.13-13.32 20.99-25.98 15.48s-4.92-18.63 3.48-24.98 15.47-15.98 21.5-22.5S513.7 74.7 509 70c-5.08-5.08-13.74-9.34-17-16-.2-.4 0-1 0-1-.94-12.49 13.76-13.77 21-8Z" fill="none" stroke="None"/>
        <path d="M12 2c3.15-.25 10.37-1 11-1-3.83-.43-7.85.39-11 1Z" fill="#FE620A" fill-opacity=".84" stroke="None"/>
        <path d="M12 2c-4.33.34-8.25 1.85-12 4v13c3.04 6.49 4.05 14.15 7 21 2.37 5.5 4.01 11.77 5 18 2 12.58 6.72 24.73 10 37 2.36 5.81 3.25 11.58 4 17 4.14 16.48 7.67 36.67 15 52-1.3-4.3-2.57-13.78-3.98-19.02-1.4-5.25.3-11.54-2.99-16.01-3.3-4.47 1.34-14.85 4.97-11.97-1.33-3.94-.02-5.31 4-4-2.33-1.14-3.66-4.09 0-2-1.45-4.06.04-5.76 2.75-6.39S45.71 96.27 50 100c-1.87-2.27-1.4-4.14 2-5 5.41 7.19 5.34 20.39 12 25-2.32-.83-3.1-7.72-4.07-9.93-.98-2.2-2.05-7.8-2.93-10.07-4.07-10.49-5.79-23.6-7-34-2.32-10.13-4.52-21.21-8-31-2.74-7.71-3.5-19.37-6-26-2.47-4.63-8.17-7.46-13-8-.63 0-7.85.75-11 1Z" fill="#FE851D" fill-opacity=".99" stroke="None"/>
        <path d="M110 2c3.96-.27 8.03 0 12 0-4.02-.88-7.95-.73-12 0Z" fill="#FE5401" fill-opacity=".73" stroke="None"/>
        <path d="M190 35c8.1-7.93 1.77-24.72 14.08-30.92 12.32-6.2 30.79-1 25.14 13.14-5.64 14.15-6.88 22.64-8.22 35.78 4.36-13.99 5.16-22.47 10.07-36.93 4.92-14.45-16.26-19.73-27.32-13.32C192.68 9.15 192.8 24.29 190 35Z" fill="#FF731D" fill-opacity=".87" stroke="None"/>
        <path d="M313 14c-.1 1.52 1 5.67 1 8v36c1.58-16.31-3.89-41.5 9-51 2.35 2.26 5.34 2.33 7 0-.86 3.15 10.54 3 10-1 6.01-2.12 6.56 5.9 9 0 6.84 10.76 14.45 21.35 23 31-1.27-2.26-2.35-3.12-2-5-.21-.3-.71-.77-1-1-3.37-2.63-4.12-6.63-5-9-5.91-9.54-10.33-20.52-23-21a144 144 0 0 0-11 0c-8.01.31-15.63 4.4-17 13Z" fill="#FE8A18" fill-opacity=".93" stroke="None"/>
        <path d="M426 13c-.08 2.33 0 4.67 0 7v8c0 4.41-.65 9.34-1 13 0 6.71-1.46 16.2 1 22 1.88-8.12-1.12-18.92 5-25 5.01 5.5 12.66-.18 19 0 1.33 3.97 1.21 3.68 4 1 3.12 7.43 1.88 16.68 4 24 .01-11 0-22 0-33v-4c-.73-5.39-1.27-13.06-1-18-.26-1.13-.63-1.23-1-2-1-.97-4.01-3.55-5-4-1.14-.31-2.91-.82-4-1-1.93-.11-9.14-.11-11 0-7.36 1.12-9.76 4.88-10 12Z" fill="#FE8D1B" fill-opacity=".99" stroke="None"/>
        <path d="M447 1c-3.12-.51-7.88-.48-11 0 1.86-.11 9.07-.11 11 0Z" fill="#FE690C" fill-opacity=".82" stroke="None"/>
        <path d="M635 2c6.43-2.37 15.01.83 22 0s15.84 0 23 0c-12.07-1.17-33.26-4.33-45 0Z" fill="#EB6700" fill-opacity=".49" stroke="None"/>
        <path d="M723 2h17c-.25-.27 0-1 0-1-5.72 0-11.96.51-17 1Z" fill="#E86700" fill-opacity=".49" stroke="None"/>
        <path d="M740 2c1 0 2 .02 3 0 1.58-.03 3.09-.88 4-1-2.31-.16-4.69 0-7 0 0 0-.25.73 0 1Z" fill="#EE7700" fill-opacity=".68" stroke="None"/>
        <path d="M743 2c-5.83 1.68-16.55 2.26-23.75 3.6-7.2 1.35-18.91-1.63-24.25 2.4-10.02-4.56-23.53-4.32-35-4s-25.28-3.44-30 9c-.11.68-.96 1.77-1 2-.47 2.87 2.8 8.33 8 7 5.2-1.32 6.89 2.49 7 8 .24 1.99 1.89 5.31 1 8 3.77-5.99-1.61-16.46 0-20-2.7-1.8-2.65 1.5-5 0 3.33-5.13 15-2.02 18 4 1.94-2.93 4.72-.58 3 2 5.23-5.59 9.54 1.1 14 3-1.54 5.27 1 14.02.07 21.07-.92 7.06.01 20.14-.07 26.93s-1.75 16.58-6 11c.69 2.55-.67 8.15-4 6 .72 2.11 1.69 6.52-1 3 4.05 8.99-10.32 15.58-7 23-5.1.35-.47.54 1 2-8.44-1.38-1.75 9.93-9 10-.9 5.35 2.8 8.62-3 11V42c-3 26.93 1 57.14-2 84 0 7.82-.81 10.68 0 19s-3.33 6.52-10 8c-1.67.62-4.59 5.78-5 7-3.01 16.69 13.44 14 26 14 25.55-2.47 52.98-.12 79-2-2.97-3.33-7.8-3.62-12-2-.29-4.22-9.42-3.22-13.08-4.92-3.65-1.71-9.66-1.48-10.92-6.08-2.77 1.45-4.81.6-4-3-6.62.71-12.83-.56-18-4 .67-15.83-1.33-32.99 1-48 0-8.45-.8-16.51 0-25s.84-13.78.33-22.67 2.27-13.7.67-24.33 4.99-9.53 15-10 14.59 1.65 13 12 .85 15.74 0 25 .21 15.88 1 24V25c2.33 17.43.34 36.82 1 55v11c.63 6.47 1.28 14.39 3 21 3.34-.16 4.76-.15 6-3 .19 4.96 5.07 2.61 6 0 1.76 2.83 5 1.48 8 1 .07 2.1 3.01 3.7 5 4 4.71-28.28-.23-61.17 3-90 3.61-5 15.73 1.09 17-8V7c-1.99-4.35-4.17-5.67-9-6-.91.12-2.42.97-4 1Z" fill="#EFAB22" stroke="None"/>
        <path d="M95 13c-.84 3.29-1.87 6.14-3 9-1 4.12-2.33 7.76-3 12-.55 3.43-1.04 10.91-4 13-.3.21-.89.65-1 1 .93 3.47-.54 6.57-2 10-.58 1.35-1.6 3.27-2 5-.17 1.45.75 3.68 0 6 4.36-7.52 3.47-19.91 10-23-.3-2.51 2.09-4.71 0-7 7.95-1.33 13.82-1.73 19 0-1-3.36 7.59-1.56 8.92-5.08 1.32-3.53 7.38-6.59 6.08-.92 4.66-2.25 3.9-6.36 6-10 3.4 4.52 1.7-1.37 3-4 5.8 4.5 5.11 14.9 9 19-.63-2.9-.83-4.58 0-7-.06-.35-.75-.75-1-1-2.98-2.92-1.57-8.29-2-11-.68-2.43-1.93-5.01-3-7-2.63-4.87-5.59-8.54-11-10-.99-.05-2.01 0-3 0-3.97 0-8.04-.27-12 0-8.44.57-12.14 4.07-15 11Z" fill="#FE861C" fill-opacity=".99" stroke="None"/>
        <path d="M136 12c-2.2-5.96-3.82-9.63-11-10 5.41 1.46 8.37 5.13 11 10Z" fill="#FE5803" fill-opacity=".76" stroke="None"/>
        <path d="M190 35c-.25.25-.88.65-1 1 1.08 3.12-.27 10.33-3 13-.25.25-.88.65-1 1 .68 2.55.4 7.65-2 10-.25.25-.88.65-1 1 1.33 3.87-.48 7.31-2 11-3.31 7.2-4.12 17.45-7.02 24.98-2.91 7.52-1.68 18.69-8.98 22.02-.44-2.78-2.35-5.61-3-8-3.98-7.35-6.03-21.46-7-31-1.56-7.03-3.38-14.63-6-21-2.57-6.25-4.5-14.12-6-21-3.89-4.1-3.2-14.5-9-19-1.3 2.63.4 8.52-3 4-2.1 3.64-1.34 7.75-6 10 1.3-5.67-4.76-2.61-6.08.92-1.33 3.52-9.92 1.72-8.92 5.08-5.18-1.73-11.05-1.33-19 0 2.09 2.29-.3 4.49 0 7-6.53 3.09-5.64 15.48-10 23-.45 1.37.11 1.07-1 2-.28.23-.89.65-1 1 1.33 3.87-1.26 13.43-3 15-.17.56-.79 1.08-1 2 .5 4.75-2.25 13.38-2.78 18.22-.52 4.85-5.6 15.38-5.22 11.78-.18.2-1.67.85-2 1-6.66-4.61-6.59-17.81-12-25-3.4.86-3.87 2.73-2 5-4.29-3.73-1.54 3.98-4.25 4.61s-4.2 2.33-2.75 6.39c-3.66-2.09-2.33.86 0 2-4.02-1.31-5.33.06-4 4-3.63-2.88-8.27 7.5-4.97 11.97 3.29 4.47 1.59 10.76 2.99 16.01C38.43 150.22 39.7 159.7 41 164c3.86 8.07 11.74 9.68 20 10 2.64.1 5.36.1 8 0 26.34-1.01 22.77-32.26 29.33-51.67 6.55-19.42 8.04-46.02 17.67-64.33 11.54 36.05 15.16 75.37 30 110-5.7-9.75-10.03-29.27-5-39 .85 2.28 2.53 6.59 6 4 2.92 1.24-2.01 4.79 1 6-.05-2.22 2.29-3.99 4-5 1.13 4.68 8.58.49 12-1 2.01.87 3.02 4.86 3-1 2.38 5.76 3.38.78 8 1-5.22-5.31 8.09-1.15 5-8 8.07 1.85 12.04-5.85 18-7-1.69-1.84.52-4.84 3-4-.33 5.41-2.78 13.25-4.77 20.23-1.99 6.97-4.64 16.38-4.23 22.77 9.92-34.56 18.3-69.7 29-104 1.34-13.14 2.58-21.63 8.22-35.78 5.65-14.14-12.82-19.34-25.14-13.14C191.77 10.28 198.1 27.07 190 35Z" fill="#FE9420" stroke="None"/>
        <path d="M253 8c-.54 2 0 4.91 0 7v73c-2.19-3.09-.43-8.16-1-12-1.52 15.75-1 33.45-1 50 .83-8.58 5.51-17.94 4-24 3.65 5.15 6.25-1.94 9 1 1.17-5.2 3.87-4.02 7-4-1.28-5.65 6.57-2.06 9-7 6.4 4.56 2.35 13.37 5 19 0-15.8-.52-33.38 0-49s-2.39-32.95-1-48-26.84-15.2-31-6Z" fill="#FE9B1E" stroke="None"/>
        <path d="M456 6c-1.33-2.74-1.88-3.15-5-4 .99.45 4 3.03 5 4Z" fill="#FE5303" fill-opacity=".48" stroke="None"/>
        <path d="M629 15c.04-.23.89-1.32 1-2 .51-3.07 1.24-9.61 5-11-3.18 1.17-9.59 9.1-6 13Z" fill="#F38106" fill-opacity=".8" stroke="None"/>
        <path d="M630 13c4.72-12.44 18.53-8.68 30-9s24.98-.56 35 4c5.34-4.03 17.05-1.05 24.25-2.4 7.2-1.34 17.92-1.92 23.75-3.6-1 .02-2 0-3 0h-60c-7.16 0-16.01-.83-23 0s-15.57-2.37-22 0c-3.76 1.39-4.49 7.93-5 11Z" fill="#EE9919" fill-opacity=".99" stroke="None"/>
        <path d="M314 58v11c0 10.97-.01 22.8-1 33v17c.61-6.31 2.69-14.09 3-20 6.28-1.65 16.02-1.18 19-7 .71 3.13 4.23-.15 4 3 6.89-12.36 6.42 9.47 8 14 0-7.54.34-21.06 0-28s-1.22-23.76 5.25-19.25c6.46 4.52 6.87 11.4 10.83 17.17S370.47 90.18 374 96c-1.91-4.64-6.22-12.27-10-17 .19-2.46 3.74-2.72 2-5 5.69 6.18 16.2-7.69 25.22-2.22C400.25 77.25 402.11 90.5 410 96c-9.96-16.09-18.97-34.51-31-49-2.69-3.25-4.95-6.36-7-10-8.55-9.65-16.16-20.24-23-31-2.44 5.9-2.99-2.12-9 0 .54 4-10.86 4.15-10 1-1.66 2.33-4.65 2.26-7 0-12.89 9.5-7.42 34.69-9 51Z" fill="#FFA320" stroke="None"/>
        <path d="M253 15c0-2.09-.54-5 0-7-1.25 2.77-.59 4.31 0 7Z" fill="#FF7A06" fill-opacity=".8" stroke="None"/>
        <path d="M458 26c0-6.09.32-12.26-1-18-.27 4.94.27 12.61 1 18Z" fill="#FE6400" fill-opacity=".75" stroke="None"/>
        <path d="M42 35c-1.74-8.26-2-18.5-6-26 2.5 6.63 3.26 18.29 6 26Z" fill="#FE5802" fill-opacity=".76" stroke="None"/>
        <path d="M92 22c1.13-2.86 2.16-5.71 3-9-1.19 2.89-2.19 5.66-3 9Z" fill="#FE5803" fill-opacity=".75" stroke="None"/>
        <path d="M425 20c0-.04 1 0 1 0 0-2.33-.08-4.67 0-7-.26 1.83-.95 4.48-1 7Z" fill="#FE5600" fill-opacity=".53" stroke="None"/>
        <path d="M313 22c0-.04 1 0 1 0 0-2.33-1.1-6.48-1-8-.4 2.52 0 5.44 0 8Z" fill="#FF6000" fill-opacity=".39" stroke="None"/>
        <path d="M644 30c.64 31.97 0 64.02 0 96 3-26.86-1-57.07 2-84v99c5.8-2.38 2.1-5.65 3-11 7.25-.07.56-11.38 9-10-1.47-1.46-6.1-1.65-1-2-3.32-7.42 11.05-14.01 7-23 2.69 3.52 1.72-.89 1-3 3.33 2.15 4.69-3.45 4-6 4.25 5.58 5.92-4.21 6-11s-.85-19.87.07-26.93c.93-7.05-1.61-15.8-.07-21.07-4.46-1.9-8.77-8.59-14-3 1.72-2.58-1.06-4.93-3-2-3-6.02-14.67-9.13-18-4 2.35 1.5 2.3-1.8 5 0-1.61 3.54 3.77 14.01 0 20 .89-2.69-.76-6.01-1-8Z" fill="#F7BB29" stroke="None"/>
        <path d="M739 24c-3.29 6.65 1.45 17.45 0 25s.58 17.09 0 25 .1 17 0 25-.31 17.13 0 25-.94 17.57 0 25 15.14-.43 17 8V16c-1.27 9.09-13.39 3-17 8Z" fill="none" stroke="None"/>
        <path d="M252 76c.57 3.84-1.19 8.91 1 12V18c-3.81 17.35-1 39.58-1 58Z" fill="#FE7800" fill-opacity=".77" stroke="None"/>
        <path d="M0 175h61v-1c-8.26-.32-16.14-1.93-20-10-7.33-15.33-10.86-35.52-15-52-1.42-5.65-2.49-11.34-4-17-3.28-12.27-8-24.42-10-37-1.53-5.64-3.38-12.04-5-18-2.95-6.85-3.96-14.51-7-21z" fill="none" stroke="None"/>
        <path d="M141 30c-.94-3.62-1-7.42-2-11 .43 2.71-.98 8.08 2 11Z" fill="#FE610E" fill-opacity=".81" stroke="None"/>
        <path d="M425 28c0-.04 1 0 1 0v-8s-1-.04-1 0c-.05 2.66 0 5.34 0 8Z" fill="#FF6000" fill-opacity=".68" stroke="None"/>
        <path d="M313 69c0-.04 1 0 1 0V22s-1-.04-1 0z" fill="#FF6D00" fill-opacity=".62" stroke="None"/>
        <path d="M369 31c-1.49-3.06-3.13-5.98-5-9 .88 2.37 1.63 6.37 5 9Z" fill="#FE771E" fill-opacity=".64" stroke="None"/>
        <path d="M677 104c0 12.42.79 23.4 0 35 .05 1.66.34 7.95 1 10 .4.8-.32 2.16 0 3 9.39-1.21 21.33 2.5 29-2 3.26-6.52-2.3-18.05 0-25s-3.3-18.21 1-24v-1c-1.52-2.05-1-5.27-1-8v-9c-.79-8.12-1.85-14.74-1-24s-1.59-14.65 0-25-2.99-12.47-13-12-16.6-.63-15 10-1.18 15.44-.67 24.33.47 14.18-.33 22.67 0 16.55 0 25Z" fill="none" stroke="None"/>
        <path d="M708 91v10c0 7.48.94 17.81 0 25s2.99 18.53-1 24c-7.67 4.5-19.61.79-29 2-.32-.84.4-2.2 0-3-1.34-2.67-1.23-6.64-1-10 .79-11.6 0-22.58 0-35-2.33 15.01-.33 32.17-1 48 5.17 3.44 11.38 4.71 18 4-.81 3.6 1.23 4.45 4 3 1.26 4.6 7.27 4.37 10.92 6.08 3.66 1.7 12.79.7 13.08 4.92 4.2-1.62 9.03-1.33 12 2-26.02 1.88-53.45-.47-79 2 16.99 0 38.45.94 55 0s37.07 6.05 46-8v-9c-1.86-8.43-16.06-.57-17-8s.31-17.13 0-25-.1-17 0-25-.58-17.09 0-25-1.45-17.45 0-25-3.29-18.35 0-25c-3.23 28.83 1.71 61.72-3 90-1.99-.3-4.93-1.9-5-4-3 .48-6.24 1.83-8-1-.93 2.61-5.81 4.96-6 0-1.24 2.85-2.66 2.84-6 3-1.72-6.61-2.37-14.53-3-21Z" fill="#D38E13" stroke="None"/>
        <path d="M707 80c.27-.25 1 0 1 0-.66-18.18 1.33-37.57-1-55z" fill="#F78F00" fill-opacity=".91" stroke="None"/>
        <path d="M425 41c.35-3.66 1-8.59 1-13 0 0-1-.04-1 0z" fill="#FE6C00" fill-opacity=".85" stroke="None"/>
        <path d="M458 63v1c1.02-10.53 1.45-23.39 0-34 0 11 .01 22 0 33Z" fill="#FEBD68" fill-opacity=".35" stroke="None"/>
        <path d="M142 38c1.5 6.88 3.43 14.75 6 21-2.34-9.18-4.35-18.72-6-28-.83 2.42-.63 4.1 0 7Z" fill="#FF6716" fill-opacity=".83" stroke="None"/>
        <path d="M372 37c2.05 3.64 4.31 6.75 7 10-2.96-4.88-5.59-10.16-9-15-.35 1.88.73 2.74 2 5Z" fill="#FE7C1B" fill-opacity=".71" stroke="None"/>
        <path d="M85 47c2.96-2.09 3.45-9.57 4-13-.98 3.58-2.52 9.33-4 13Z" fill="#FE5702" fill-opacity=".75" stroke="None"/>
        <path d="M186 49c2.73-2.67 4.08-9.88 3-13-1.4 4.28-1.87 8.69-3 13Z" fill="#FE6C11" fill-opacity=".88" stroke="None"/>
        <path d="M426 63c-.11.47 0 1.5 0 2 .25-1.57 2.11-3.93 2-6 7.75 1.47 12.79-1.45 23 0 .3 4.66.99 1.56 3 1 2.92 3.75.23 10.16 4 13V63c-2.12-7.32-.88-16.57-4-24-2.79 2.68-2.67 2.97-4-1-6.34-.18-13.99 5.5-19 0-6.12 6.08-3.12 16.88-5 25Z" fill="#FEA822" stroke="None"/>
        <path d="M12 58c-.99-6.23-2.63-12.5-5-18 1.62 5.96 3.47 12.36 5 18Z" fill="#FE5902" fill-opacity=".77" stroke="None"/>
        <path d="M492 53c4.89-9.36 11.75-13.48 21-8-7.24-5.77-21.94-4.49-21 8Z" fill="#FD5D10" fill-opacity=".77" stroke="None"/>
        <path d="M543 75c-4.48.72-7.26-8.15-11.75-10.25s-10.31-8.7-15.33-7.81c-5.02.88-10.15 2.42-15.92 1.06-.1 5.18 7.1 7.47 9 12 4.7 4.7 22.78 17.23 16.75 23.75s-13.1 16.15-21.5 22.5-16.14 19.47-3.48 24.98 18.32-9.35 25.98-15.48c7.65-6.14 14.5-22.09 23-12.5 8.5 9.58 14.28 12.62 21.5 22.5 7.21 9.88 25.12 8.09 22.75-6.75-1.67-5.5-13.7-14.7-18-19-4.9-4.19-14.54-11.64-15-17-.73-8.51 14.84-15.21 18.75-23.25 3.92-8.03 23.27-14.08 13-25.5-10.28-11.41-20.54 4.55-27.5 10C558.28 59.69 551.4 73.65 543 75Z" fill="#FABC26" fill-opacity=".99" stroke="None"/>
        <path d="M492 53s-.2.6 0 1c2.98 2.54 4.32-5.89 6-7 15.64-2.85 26.66 10.84 38 21-7.51-7.51-14.6-16.3-23-23-9.25-5.48-16.11-1.36-21 8Z" fill="#FE8813" fill-opacity=".98" stroke="None"/>
        <path d="M492 54c3.26 6.66 11.92 10.92 17 16-1.9-4.53-9.1-6.82-9-12 5.77 1.36 10.9-.18 15.92-1.06 5.02-.89 10.84 5.71 15.33 7.81S538.52 75.72 543 75c-1.63-2.81-4.55-4.91-7-7-11.34-10.16-22.36-23.85-38-21-1.68 1.11-3.02 9.54-6 7Z" fill="#FEA51F" fill-opacity=".98" stroke="None"/>
        <path d="M82 58c1.46-3.43 2.93-6.53 2-10-.98 3.24-1.07 6.77-2 10Z" fill="#FE5801" fill-opacity=".76" stroke="None"/>
        <path d="M183 60c2.4-2.35 2.68-7.45 2-10-1.08 3.3-1.14 6.69-2 10Z" fill="#FE6A1B" fill-opacity=".82" stroke="None"/>
        <path d="M69 174c.02 0 0 1 0 1h91c-4.81-1.44-10.43-2.78-14-7-14.84-34.63-18.46-73.95-30-110-9.63 18.31-11.12 44.91-17.67 64.33C91.77 141.74 95.34 172.99 69 174Z" fill="none" stroke="None"/>
        <path d="M426 65c0 14.21-1.71 21.72-1 37s-10.22 1.72-15-6c-7.89-5.5-9.75-18.75-18.78-24.22-9.02-5.47-19.53 8.4-25.22 2.22 1.74 2.28-1.81 2.54-2 5 3.78 4.73 8.09 12.36 10 17 8.52 14.06 16.96 30.15 26.23 43.77S415.2 173.6 434 175h3c14.38 1.02 23.18-6.5 22-21s-.5-26.97-1-41 0-26.06 0-40c-3.77-2.84-1.08-9.25-4-13-2.01.56-2.7 3.66-3-1-10.21-1.45-15.25 1.47-23 0 .11 2.07-1.75 4.43-2 6Z" fill="#FEC52A" fill-opacity=".99" stroke="None"/>
        <path d="M180 72c1.52-3.69 3.33-7.13 2-11-1.2 3.66-1.12 7.29-2 11Z" fill="#FF7321" fill-opacity=".86" stroke="None"/>
        <path d="M79 71c1.11-.93.55-.63 1-2 .75-2.32-.17-4.55 0-6-.61 2.64-.32 5.41-1 8Z" fill="#FF5A01" fill-opacity=".77" stroke="None"/>
        <path d="M57 100c-2.87-11.22-4.42-22.73-7-34 1.21 10.4 2.93 23.51 7 34Z" fill="#FE5C02" fill-opacity=".79" stroke="None"/>
        <path d="M313 102c.99-10.2 1-22.03 1-33 0 0-1-.04-1 0z" fill="#FF8000" fill-opacity=".92" stroke="None"/>
        <path d="M75 87c1.74-1.57 4.33-11.13 3-15-1.46 4.85-1.51 10.22-3 15Z" fill="#FE6911" fill-opacity=".85" stroke="None"/>
        <path d="M161 111c-2.77-10.21-4.72-20.7-7-31 .97 9.54 3.02 23.65 7 31Z" fill="#FF7B27" fill-opacity=".89" stroke="None"/>
        <path d="M707 83v9c0-.04 1 0 1 0V80s-.73-.25-1 0z" fill="#F07D00" fill-opacity=".75" stroke="None"/>
        <path d="M66 119c-.38 3.6 4.7-6.93 5.22-11.78.53-4.84 3.28-13.47 2.78-18.22-1.85 8.07-2.38 23.61-8 30Z" fill="#FE7112" fill-opacity=".91" stroke="None"/>
        <path d="M313 119c0 13.91-1.84 29.23 0 43-.47-12.63 3.1-26.73 2-40 3.83-.1 7.81-1.81 11 2-3.13-5.67 7.3-1.66 2-6 3.77 2.27 6.38-.34 11 1 1.03-2.17 1.18-4.45 4-5 4.25 11.73.97 25.44 2 38 1.26-.08.56-2.06 2-2v-41c-1.58-4.53-1.11-26.36-8-14 .23-3.15-3.29.13-4-3-2.98 5.82-12.72 5.35-19 7-.31 5.91-2.39 13.69-3 20Z" fill="#FEBC20" stroke="None"/>
        <path d="M251 126c0 11.32-.53 23.07 1 34-.31-8.28.55-20.71 5-28 3.36 2.36 2.33 1.95 7 3-.38-7.37 12.9-3.93 17-10 4.28 3.87 2.67 11.29 3 17 .41-9.48 1-20.73 1-31-2.65-5.63 1.4-14.44-5-19-2.43 4.94-10.28 1.35-9 7-3.13-.02-5.83-1.2-7 4-2.75-2.94-5.35 4.15-9-1 1.51 6.06-3.17 15.42-4 24Z" fill="#FEB01E" stroke="None"/>
        <path d="M708 100v-8s-1-.04-1 0c0 2.73-.52 5.95 1 8Z" fill="#E66E00" fill-opacity=".56" stroke="None"/>
        <path d="M576 110c3.37 2.88 6.68 6.16 10 9-3.9-3.9-9.15-9.06-12.75-13.25S562.88 98.08 561 93c.46 5.36 10.1 12.81 15 17Z" fill="#F79B0C" fill-opacity=".9" stroke="None"/>
        <path d="M26 112c-.75-5.42-1.64-11.19-4-17 1.51 5.66 2.58 11.35 4 17Z" fill="#FE5D03" fill-opacity=".8" stroke="None"/>
        <path d="M707 150c3.99-5.47.06-16.81 1-24s0-17.52 0-25c-4.3 5.79 1.3 17.05-1 24s3.26 18.48 0 25Z" fill="#CA5500" fill-opacity=".63" stroke="None"/>
        <path d="M594 129c-.67-4.21-4.86-7.31-8-10-3.32-2.84-6.63-6.12-10-9 4.3 4.3 16.33 13.5 18 19Z" fill="#ED8B02" fill-opacity=".7" stroke="None"/>
        <path d="M146 168c3.57 4.22 9.19 5.56 14 7h11c12.27-.55 17.8-6.86 21-18-.41-6.39 2.24-15.8 4.23-22.77 1.99-6.98 4.44-14.82 4.77-20.23-2.48-.84-4.69 2.16-3 4-5.96 1.15-9.93 8.85-18 7 3.09 6.85-10.22 2.69-5 8-4.62-.22-5.62 4.76-8-1 .02 5.86-.99 1.87-3 1-3.42 1.49-10.87 5.68-12 1-1.71 1.01-4.05 2.78-4 5-3.01-1.21 1.92-4.76-1-6-3.47 2.59-5.15-1.72-6-4-5.03 9.73-.7 29.25 5 39Z" fill="#FEA220" fill-opacity=".99" stroke="None"/>
        <path d="M313 162c1.65 12.41 10.84 11.65 22.99 11.99S347 160.27 347 150c-1.44-.06-.74 1.92-2 2-1.03-12.56 2.25-26.27-2-38-2.82.55-2.97 2.83-4 5-4.62-1.34-7.23 1.27-11-1 5.3 4.34-5.13.33-2 6-3.19-3.81-7.17-2.1-11-2 1.1 13.27-2.47 27.37-2 40Z" fill="#FECB26" stroke="None"/>
        <path d="M252 160c-.7 3.6 1.21 6.54 1 10 9.82 4.7 21.41 5.3 31 0 1.48-9.79.52-18.38 0-28-.33-5.71 1.28-13.13-3-17-4.1 6.07-17.38 2.63-17 10-4.67-1.05-3.64-.64-7-3-4.45 7.29-5.31 19.72-5 28Z" fill="#FEC721" fill-opacity=".99" stroke="None"/>
        <path d="M678 149c-.66-2.05-.95-8.34-1-10-.23 3.36-.34 7.33 1 10Z" fill="#E2A641" fill-opacity=".79" stroke="None"/>
        <path d="M629 160c.41-1.22 3.33-6.38 5-7-4.13.92-4.35 3.4-5 7Z" fill="#E18715" fill-opacity=".8" stroke="None"/>
        <path d="M61 175h8s.02-1 0-1c-2.64.1-5.36.1-8 0z" fill="#FEC699" fill-opacity=".31" stroke="None"/>
    </g>
</svg>
